M48
; DRILL file {KiCad 9.0.7} date 2026-02-01T05:15:00-0800
; FORMAT={-:-/ absolute / metric / decimal}
; #@! TF.CreationDate,2026-02-01T05:15:00-08:00
; #@! TF.GenerationSoftware,Kicad,Pcbnew,9.0.7
; #@! TF.FileFunction,MixedPlating,1,2
FMAT,2
METRIC
; #@! TA.AperFunction,Plated,PTH,ComponentDrill
T1C0.800
; #@! TA.AperFunction,Plated,PTH,ComponentDrill
T2C0.900
; #@! TA.AperFunction,Plated,PTH,ComponentDrill
T3C1.000
%
G90
G05
T1
X30.97Y-20.88
X30.97Y-24.93
X30.97Y-28.98
X30.97Y-33.03
X30.97Y-37.08
X30.97Y-41.13
X30.97Y-45.18
X30.97Y-49.23
X41.13Y-20.88
X41.13Y-24.93
X41.13Y-28.98
X41.13Y-33.03
X41.13Y-37.08
X41.13Y-41.13
X41.13Y-45.18
X41.13Y-49.23
X44.41Y-21.68
X44.41Y-27.33
X44.41Y-32.98
X44.41Y-38.63
X47.41Y-21.68
X47.41Y-27.33
X47.41Y-32.98
X47.41Y-38.63
X50.82Y-21.68
X50.82Y-27.33
X50.82Y-32.98
X53.82Y-21.68
X53.82Y-27.33
X53.82Y-32.98
T2
X24.38Y-22.59
X24.38Y-30.06
X24.38Y-37.53
X24.38Y-45.0
X24.38Y-52.47
X24.38Y-59.94
X26.92Y-22.59
X26.92Y-30.06
X26.92Y-37.53
X26.92Y-45.0
X26.92Y-52.47
X26.92Y-59.94
T3
X45.0Y-43.76
X45.0Y-46.3
X45.0Y-48.84
X45.0Y-51.38
X45.0Y-53.92
X45.0Y-56.46
X45.0Y-59.0
X49.59Y-43.75
X49.59Y-46.29
M30
