%TF.GenerationSoftware,KiCad,Pcbnew,9.0.7*%
%TF.CreationDate,2026-02-01T05:16:01-08:00*%
%TF.ProjectId,Final_Project_PCB,46696e61-6c5f-4507-926f-6a6563745f50,rev?*%
%TF.SameCoordinates,Original*%
%TF.FileFunction,Copper,L2,Bot*%
%TF.FilePolarity,Positive*%
%FSLAX46Y46*%
G04 Gerber Fmt 4.6, Leading zero omitted, Abs format (unit mm)*
G04 Created by KiCad (PCBNEW 9.0.7) date 2026-02-01 05:16:01*
%MOMM*%
%LPD*%
G01*
G04 APERTURE LIST*
%TA.AperFunction,ComponentPad*%
%ADD10C,1.600000*%
%TD*%
%TA.AperFunction,ComponentPad*%
%ADD11R,1.700000X1.700000*%
%TD*%
%TA.AperFunction,ComponentPad*%
%ADD12C,1.700000*%
%TD*%
%TA.AperFunction,ComponentPad*%
%ADD13R,1.800000X1.800000*%
%TD*%
%TA.AperFunction,ComponentPad*%
%ADD14C,1.800000*%
%TD*%
G04 APERTURE END LIST*
D10*
%TO.P,R15,1*%
%TO.N,VCC*%
X30970000Y-49230000D03*
%TO.P,R15,2*%
%TO.N,Net-(D1-A)*%
X41130000Y-49230000D03*
%TD*%
%TO.P,R14,1*%
%TO.N,/A14*%
X50820000Y-32980000D03*
%TO.P,R14,2*%
%TO.N,GND*%
X53820000Y-32980000D03*
%TD*%
%TO.P,R13,1*%
%TO.N,/A13*%
X50820000Y-27330000D03*
%TO.P,R13,2*%
%TO.N,GND*%
X53820000Y-27330000D03*
%TD*%
%TO.P,R12,1*%
%TO.N,/A12*%
X50820000Y-21680000D03*
%TO.P,R12,2*%
%TO.N,GND*%
X53820000Y-21680000D03*
%TD*%
%TO.P,R11,1*%
%TO.N,/A11*%
X44410000Y-38630000D03*
%TO.P,R11,2*%
%TO.N,GND*%
X47410000Y-38630000D03*
%TD*%
%TO.P,R10,1*%
%TO.N,/A10*%
X44410000Y-32980000D03*
%TO.P,R10,2*%
%TO.N,GND*%
X47410000Y-32980000D03*
%TD*%
%TO.P,R9,1*%
%TO.N,/A9*%
X44410000Y-27330000D03*
%TO.P,R9,2*%
%TO.N,GND*%
X47410000Y-27330000D03*
%TD*%
%TO.P,R8,1*%
%TO.N,/A8*%
X44410000Y-21680000D03*
%TO.P,R8,2*%
%TO.N,GND*%
X47410000Y-21680000D03*
%TD*%
%TO.P,R7,1*%
%TO.N,VCC*%
X30970000Y-45180000D03*
%TO.P,R7,2*%
%TO.N,/A14*%
X41130000Y-45180000D03*
%TD*%
%TO.P,R6,1*%
%TO.N,VCC*%
X30970000Y-41130000D03*
%TO.P,R6,2*%
%TO.N,/A13*%
X41130000Y-41130000D03*
%TD*%
%TO.P,R5,1*%
%TO.N,VCC*%
X30970000Y-37080000D03*
%TO.P,R5,2*%
%TO.N,/A12*%
X41130000Y-37080000D03*
%TD*%
%TO.P,R4,1*%
%TO.N,VCC*%
X30970000Y-33030000D03*
%TO.P,R4,2*%
%TO.N,/A11*%
X41130000Y-33030000D03*
%TD*%
%TO.P,R3,1*%
%TO.N,VCC*%
X30970000Y-28980000D03*
%TO.P,R3,2*%
%TO.N,/A10*%
X41130000Y-28980000D03*
%TD*%
%TO.P,R2,1*%
%TO.N,VCC*%
X30970000Y-24930000D03*
%TO.P,R2,2*%
%TO.N,/A9*%
X41130000Y-24930000D03*
%TD*%
%TO.P,R1,1*%
%TO.N,VCC*%
X30970000Y-20880000D03*
%TO.P,R1,2*%
%TO.N,/A8*%
X41130000Y-20880000D03*
%TD*%
D11*
%TO.P,J2,1,Pin_1*%
%TO.N,VCC*%
X49590000Y-43750000D03*
D12*
%TO.P,J2,2,Pin_2*%
%TO.N,GND*%
X49590000Y-46290000D03*
%TD*%
D11*
%TO.P,J1,1,Pin_1*%
%TO.N,/A8*%
X45000000Y-43760000D03*
D12*
%TO.P,J1,2,Pin_2*%
%TO.N,/A9*%
X45000000Y-46300000D03*
%TO.P,J1,3,Pin_3*%
%TO.N,/A10*%
X45000000Y-48840000D03*
%TO.P,J1,4,Pin_4*%
%TO.N,/A11*%
X45000000Y-51380000D03*
%TO.P,J1,5,Pin_5*%
%TO.N,/A12*%
X45000000Y-53920000D03*
%TO.P,J1,6,Pin_6*%
%TO.N,/A13*%
X45000000Y-56460000D03*
%TO.P,J1,7,Pin_7*%
%TO.N,/A14*%
X45000000Y-59000000D03*
%TD*%
D13*
%TO.P,D6,1,K*%
%TO.N,GND*%
X24380000Y-59940000D03*
D14*
%TO.P,D6,2,A*%
%TO.N,Net-(D1-A)*%
X26920000Y-59940000D03*
%TD*%
D13*
%TO.P,D5,1,K*%
%TO.N,GND*%
X24380000Y-52470000D03*
D14*
%TO.P,D5,2,A*%
%TO.N,Net-(D1-A)*%
X26920000Y-52470000D03*
%TD*%
D13*
%TO.P,D4,1,K*%
%TO.N,GND*%
X24380000Y-45000000D03*
D14*
%TO.P,D4,2,A*%
%TO.N,Net-(D1-A)*%
X26920000Y-45000000D03*
%TD*%
D13*
%TO.P,D3,1,K*%
%TO.N,GND*%
X24380000Y-37530000D03*
D14*
%TO.P,D3,2,A*%
%TO.N,Net-(D1-A)*%
X26920000Y-37530000D03*
%TD*%
D13*
%TO.P,D2,1,K*%
%TO.N,GND*%
X24380000Y-30060000D03*
D14*
%TO.P,D2,2,A*%
%TO.N,Net-(D1-A)*%
X26920000Y-30060000D03*
%TD*%
D13*
%TO.P,D1,1,K*%
%TO.N,GND*%
X24380000Y-22590000D03*
D14*
%TO.P,D1,2,A*%
%TO.N,Net-(D1-A)*%
X26920000Y-22590000D03*
%TD*%
M02*
